<svg xmlns="http://www.w3.org/2000/svg" viewBox="0 0 217 196.65">
    <path d="M0 13.38v101.55h38.48V89.69H24.79V13.38H0zM38.48 0v150.87h128.31V0H38.48zM166.79 69.82l22.23 44.68H217L166.79 12.95v56.87z"/>
    <path fill="#fff" d="M166.79 69.82l-22.21 44.68H116.6l50.19-101.55"/>
    <path d="M166.79 92.47h11.08l-11.08 22.03"/>
    <path fill="#fff" d="M166.79 92.47h-11.02l11.02 22.03"/>
    <path d="M83.23 45v23h25.63c3.13 0 12.19-1.25 12.19-11.25 0-9.37-7.82-12-13-12S83.23 45 83.23 45M51.89 13.26h56.5c29.85 0 39.39 23.12 40.48 26.72-4.73 9.74-29.07 58.28-29.07 58.28s-2.8 1.09-11.25 1.24-25.48.16-25.48.16l-.16 37.65h-31z" fill="#ffed00"/>
    <path fill="#fff" d="M38.5 89.69h10.02v25.24h-9.93"/>
    <path d="M48.03 89.69h19.41v25.24H48.03zM38.39 171.29h14.52v1.62H38.39zM64.91 164.66h-1.76v11.09h4.66v-1.67h-2.9v-9.42zM80.5 175.75l-5.17-12-5.3 12H72l1.27-3h4.09l1.24 3zm-3.88-4.65h-2.67l1.35-3.16zM96.15 172.44l-3.93-9.07-2.38 12.38h1.8l1.23-6.46 3.28 7.32 3.29-7.33 1.23 6.47h1.8l-2.38-12.38-3.94 9.07zM116.94 170.22a5.77 5.77 0 1 0-5.77 5.71 5.76 5.76 0 0 0 5.77-5.71zm-1.76 0a4 4 0 1 1-4-4.05 4 4 0 0 1 4.01 4.04zM127.52 172.53a3 3 0 0 0-1.7-2.79 2.69 2.69 0 0 0 .74-1.94c0-2-1.35-3.13-3.8-3.13h-2v11.09h2.73c2.51-.01 4.03-1.21 4.03-3.23zm-5-3.25v-3h.17c1.51 0 2.14.2 2.14 1.46s-.7 1.49-2.16 1.49zm3.27 3.16c0 .7-.25 1.63-2.39 1.63h-.88v-3.2h.72c1.76.01 2.52.49 2.52 1.58zM131.46 164.66h1.76v11.09h-1.76zM142.2 174.08h-2.9v-9.42h-1.76v11.09h4.66v-1.67zM145.58 164.66h1.76v11.09h-1.76zM155.04 175.75v-9.41h2.56v-1.68h-6.85v1.68h2.53v9.41h1.76zM165.88 161.58l-1.77-.81-2 2.75 1.18.66 2.59-2.6zM167.03 174.08h-4.27v-3.54h4.15v-1.67h-4.15v-2.53h4.27v-1.68H161v11.09h6.03v-1.67zM39.45 195.73h6.03v-1.67h-4.27v-3.54h4.15v-1.67h-4.15v-2.53h4.27v-1.68h-6.03v11.09zM53.64 189.15l-.7-.31c-.65-.29-1.46-.66-1.46-1.37a1.38 1.38 0 0 1 1.45-1.33 1.63 1.63 0 0 1 1.56 1l.15.27 1.42-.91-.13-.24a3.3 3.3 0 0 0-3-1.78 3 3 0 0 0-3.23 3c0 1.7 1.21 2.39 2.46 3l.68.3c.92.42 1.72.78 1.72 1.8a1.81 1.81 0 0 1-1.87 1.75 1.86 1.86 0 0 1-1.81-1.7v-.33l-1.73.49.06.27a3.61 3.61 0 0 0 7.16-.59c-.04-1.98-1.37-2.72-2.73-3.32zM59.33 186.32h2.53v9.41h1.76v-9.41h2.56v-1.68h-6.85v1.68zM84.64 191.35a3.12 3.12 0 0 1-.45 2.06 2.46 2.46 0 0 1-1.83.83 2.41 2.41 0 0 1-1.88-.88 3.41 3.41 0 0 1-.4-2v-6.67h-1.77v6.87a4 4 0 0 0 1.12 3.25 4.24 4.24 0 0 0 2.92 1.16 4.15 4.15 0 0 0 3-1.29 4 4 0 0 0 1-3.11v-6.87h-1.72zM98.93 192.34l-8.19-8.58v11.97h1.75v-7.65l8.19 8.57v-12.01h-1.75v7.7zM112.7 195.73h1.93l1.27-3h4.1l1.24 3h1.94l-5.17-12zm6.58-4.66h-2.67l1.35-3.16zM132.3 187.83c0-2.12-1.39-3.19-4.14-3.19h-1.81v11.09h1.76v-4.38l3 4.38h2.16l-3.4-4.78a3 3 0 0 0 2.43-3.12zm-1.76.08c0 1.13-.69 1.59-2.37 1.59h-.07v-3.19h.05c1.6.01 2.4.25 2.4 1.61zM135.49 186.32h2.54v9.41h1.76v-9.41h2.56v-1.68h-6.86v1.68zM153.45 191.27h14.52v1.62h-14.52z"/>
</svg>